<svg width="134" height="20" viewBox="0 0 134 20" fill="none" xmlns="http://www.w3.org/2000/svg">
<path d="M4.24167 20L5.96797 12.6034L0.228027 7.63052L7.78894 6.97619L10.7501 0L13.7113 6.9748L21.2708 7.62912L15.5322 12.602L17.2585 19.9986L10.7501 16.0727L4.24167 20Z" fill="#FFCE31"/>
<path d="M32.2417 20L33.968 12.6034L28.228 7.63052L35.7889 6.97619L38.7501 0L41.7113 6.9748L49.2708 7.62912L43.5322 12.602L45.2585 19.9986L38.7501 16.0727L32.2417 20Z" fill="#FFCE31"/>
<path d="M60.2417 20L61.968 12.6034L56.228 7.63052L63.7889 6.97619L66.7501 0L69.7113 6.9748L77.2708 7.62912L71.5322 12.602L73.2585 19.9986L66.7501 16.0727L60.2417 20Z" fill="#FFCE31"/>
<path d="M88.2417 20L89.968 12.6034L84.228 7.63052L91.7889 6.97619L94.7501 0L97.7113 6.9748L105.271 7.62912L99.5322 12.602L101.259 19.9986L94.7501 16.0727L88.2417 20Z" fill="#FFCE31"/>
<path d="M116.242 20L117.968 12.6034L112.228 7.63052L119.789 6.97619L122.75 0L125.711 6.9748L133.271 7.62912L127.532 12.602L129.259 19.9986L122.75 16.0727L116.242 20Z" fill="#FFCE31"/>
</svg>
